<svg version="1.1" viewBox="0.0 0.0 558.0 558.0" fill="none" stroke="none" stroke-linecap="square" stroke-miterlimit="10" xmlns:xlink="http://www.w3.org/1999/xlink" xmlns="http://www.w3.org/2000/svg"><clipPath id="p.0"><path d="m0 0l558.0 0l0 558.0l-558.0 0l0 -558.0z" clip-rule="nonzero"/></clipPath><g clip-path="url(#p.0)"><path fill="#000000" fill-opacity="0.0" d="m0 0l558.0 0l0 558.0l-558.0 0z" fill-rule="evenodd"/><path fill="#000000" d="m347.9834 75.43599c8.293884 6.18528 1.1838684 17.62233 -3.1608582 35.010315c-4.3447266 17.387985 -14.481934 57.99774 -22.907532 69.31761c-8.425568 11.31987 -26.329376 -3.4989014 -27.645905 -1.3983612c-1.3165588 2.100525 17.772095 9.333954 19.746674 14.001556c1.9745789 4.667618 -2.3701782 13.42041 -7.8992615 14.004135c-5.5290833 0.5837097 -24.880646 -11.902313 -25.275269 -10.501816c-0.3946228 1.4004974 20.801239 12.953003 22.907532 18.9048c2.1062622 5.9517975 -6.056885 15.755707 -10.269897 16.80597c-4.213043 1.0502777 -11.322052 -8.170349 -15.00827 -10.504364c-3.6862183 -2.3340302 -8.425598 -6.8840485 -7.1090393 -3.4997559c1.3165283 3.3842926 15.403381 15.286606 15.00827 23.805481c-0.39511108 8.518875 -10.532806 15.287445 -17.378906 27.3078c-6.8461304 12.020325 -17.905258 29.409576 -23.697754 44.81421c-5.7924957 15.404633 -9.740677 33.959625 -11.05722 47.613525c-1.3165283 13.6539 1.3151093 35.827087 3.1579742 34.309845c1.842865 -1.5172424 2.3696747 -27.191895 7.899246 -43.4133c5.5295715 -16.221405 15.798981 -38.394165 25.278168 -53.91513c9.479187 -15.520935 21.723175 -34.77597 31.596985 -39.21051c9.87381 -4.434555 25.934296 14.237183 27.645935 12.60321c1.7116394 -1.6340027 -16.05951 -15.87204 -17.376038 -22.40712c-1.3165588 -6.535095 4.0794067 -16.453186 9.476776 -16.803421c5.3974 -0.350235 21.985626 16.802994 22.907532 14.702026c0.92193604 -2.1009521 -16.322906 -20.072662 -17.376038 -27.307785c-1.0531311 -7.2351227 6.4495544 -16.686676 11.05722 -16.102966c4.607666 0.583725 15.5355835 21.239258 16.588715 19.60527c1.0531311 -1.6339874 -11.059631 -18.43953 -10.269897 -29.40918c0.7897339 -10.969635 11.716705 -27.539566 15.008301 -36.408676c3.291565 -8.86911 -0.13027954 -15.638962 4.741272 -16.80597c4.871521 -1.1670227 14.745819 2.6851044 24.487946 9.803909c9.742126 7.118805 25.670868 18.321503 33.964752 32.90892c8.293854 14.587418 17.904755 32.909363 15.798492 54.615585c-2.1062622 21.706238 -13.032745 53.215515 -28.436127 75.621765c-15.403412 22.40625 -46.86917 43.29486 -63.98419 58.815796c-17.115051 15.520935 -28.173706 23.34021 -38.706024 34.309845c-10.532349 10.969666 -18.16867 21.121674 -24.487976 31.508026c-6.3193054 10.386353 -12.374695 22.290771 -13.427856 30.81009c-1.0531311 8.519318 16.456543 21.822968 7.1090393 20.305725c-9.347473 -1.5172424 -43.840958 -17.272095 -63.19397 -29.40918c-19.353012 -12.137085 -38.706024 -26.491852 -52.924088 -43.4133c-14.218079 -16.921448 -25.406998 -37.10956 -32.384323 -58.115326c-6.977333 -21.005768 -10.532814 -46.563263 -9.479675 -67.91925c1.0531387 -21.355988 5.3978653 -40.844513 15.798492 -60.21672c10.400635 -19.372192 30.543854 -41.545822 46.60527 -56.016495c16.061417 -14.470673 32.385284 -22.755219 49.763245 -30.80754c17.37796 -8.052338 42.52394 -14.471954 54.5045 -17.50644c11.980591 -3.0344849 15.798981 8.051895 17.378937 -0.70046234c1.579956 -8.752365 -15.403381 -43.528343 -7.8992615 -51.813736c7.5041504 -8.285393 44.63022 -4.083893 52.924103 2.101387z" fill-rule="evenodd"/></g></svg>