<?xml version="1.0" encoding="UTF-8"?>
<!DOCTYPE svg PUBLIC "-//W3C//DTD SVG 1.1//EN" "http://www.w3.org/Graphics/SVG/1.1/DTD/svg11.dtd">
<svg version="1.2" width="147.6mm" height="147.6mm" viewBox="0 0 14760 14760" preserveAspectRatio="xMidYMid" fill-rule="evenodd" stroke-width="28.222" stroke-linejoin="round" xmlns="http://www.w3.org/2000/svg" xmlns:ooo="http://xml.openoffice.org/svg/export" xmlns:xlink="http://www.w3.org/1999/xlink" xmlns:presentation="http://sun.com/xmlns/staroffice/presentation" xmlns:smil="http://www.w3.org/2001/SMIL20/" xmlns:anim="urn:oasis:names:tc:opendocument:xmlns:animation:1.0" xml:space="preserve">
 <defs class="ClipPathGroup">
  <clipPath id="presentation_clip_path" clipPathUnits="userSpaceOnUse">
   <rect x="0" y="0" width="14760" height="14760"/>
  </clipPath>
  <clipPath id="presentation_clip_path_shrink" clipPathUnits="userSpaceOnUse">
   <rect x="14" y="14" width="14731" height="14731"/>
  </clipPath>
 </defs>
 <defs class="TextShapeIndex">
  <g ooo:slide="id1" ooo:id-list="id3 id4 id5 id6 id7 id8 id9 id10"/>
 </defs>
 <defs class="EmbeddedBulletChars">
  <g id="bullet-char-template-57356" transform="scale(0.00048828125,-0.00048828125)">
   <path d="M 580,1141 L 1163,571 580,0 -4,571 580,1141 Z"/>
  </g>
  <g id="bullet-char-template-57354" transform="scale(0.00048828125,-0.00048828125)">
   <path d="M 8,1128 L 1137,1128 1137,0 8,0 8,1128 Z"/>
  </g>
  <g id="bullet-char-template-10146" transform="scale(0.00048828125,-0.00048828125)">
   <path d="M 174,0 L 602,739 174,1481 1456,739 174,0 Z M 1358,739 L 309,1346 659,739 1358,739 Z"/>
  </g>
  <g id="bullet-char-template-10132" transform="scale(0.00048828125,-0.00048828125)">
   <path d="M 2015,739 L 1276,0 717,0 1260,543 174,543 174,936 1260,936 717,1481 1274,1481 2015,739 Z"/>
  </g>
  <g id="bullet-char-template-10007" transform="scale(0.00048828125,-0.00048828125)">
   <path d="M 0,-2 C -7,14 -16,27 -25,37 L 356,567 C 262,823 215,952 215,954 215,979 228,992 255,992 264,992 276,990 289,987 310,991 331,999 354,1012 L 381,999 492,748 772,1049 836,1024 860,1049 C 881,1039 901,1025 922,1006 886,937 835,863 770,784 769,783 710,716 594,584 L 774,223 C 774,196 753,168 711,139 L 727,119 C 717,90 699,76 672,76 641,76 570,178 457,381 L 164,-76 C 142,-110 111,-127 72,-127 30,-127 9,-110 8,-76 1,-67 -2,-52 -2,-32 -2,-23 -1,-13 0,-2 Z"/>
  </g>
  <g id="bullet-char-template-10004" transform="scale(0.00048828125,-0.00048828125)">
   <path d="M 285,-33 C 182,-33 111,30 74,156 52,228 41,333 41,471 41,549 55,616 82,672 116,743 169,778 240,778 293,778 328,747 346,684 L 369,508 C 377,444 397,411 428,410 L 1163,1116 C 1174,1127 1196,1133 1229,1133 1271,1133 1292,1118 1292,1087 L 1292,965 C 1292,929 1282,901 1262,881 L 442,47 C 390,-6 338,-33 285,-33 Z"/>
  </g>
  <g id="bullet-char-template-9679" transform="scale(0.00048828125,-0.00048828125)">
   <path d="M 813,0 C 632,0 489,54 383,161 276,268 223,411 223,592 223,773 276,916 383,1023 489,1130 632,1184 813,1184 992,1184 1136,1130 1245,1023 1353,916 1407,772 1407,592 1407,412 1353,268 1245,161 1136,54 992,0 813,0 Z"/>
  </g>
  <g id="bullet-char-template-8226" transform="scale(0.00048828125,-0.00048828125)">
   <path d="M 346,457 C 273,457 209,483 155,535 101,586 74,649 74,723 74,796 101,859 155,911 209,963 273,989 346,989 419,989 480,963 531,910 582,859 608,796 608,723 608,648 583,586 532,535 482,483 420,457 346,457 Z"/>
  </g>
  <g id="bullet-char-template-8211" transform="scale(0.00048828125,-0.00048828125)">
   <path d="M -4,459 L 1135,459 1135,606 -4,606 -4,459 Z"/>
  </g>
  <g id="bullet-char-template-61548" transform="scale(0.00048828125,-0.00048828125)">
   <path d="M 173,740 C 173,903 231,1043 346,1159 462,1274 601,1332 765,1332 928,1332 1067,1274 1183,1159 1299,1043 1357,903 1357,740 1357,577 1299,437 1183,322 1067,206 928,148 765,148 601,148 462,206 346,322 231,437 173,577 173,740 Z"/>
  </g>
 </defs>
 <g>
  <g id="id2" class="Master_Slide">
   <g id="bg-id2" class="Background"/>
   <g id="bo-id2" class="BackgroundObjects"/>
  </g>
 </g>
 <g class="SlideGroup">
  <g>
   <g id="container-id1">
    <g id="id1" class="Slide" clip-path="url(#presentation_clip_path)">
     <g class="Page">
      <g class="Group">
       <g class="Group">
        <g class="com.sun.star.drawing.CustomShape">
         <g id="id3">
          <rect class="BoundingBox" stroke="none" fill="none" x="6557" y="2973" width="1671" height="6279"/>
          <path fill="rgb(0,0,0)" stroke="none" d="M 7392,9210 L 6598,9210 6598,3014 8186,3014 8186,9210 7392,9210 Z"/>
          <path fill="none" stroke="rgb(255,255,255)" stroke-width="81" stroke-linejoin="round" d="M 7392,9210 L 6598,9210 6598,3014 8186,3014 8186,9210 7392,9210 Z"/>
         </g>
        </g>
        <g class="com.sun.star.drawing.CustomShape">
         <g id="id4">
          <rect class="BoundingBox" stroke="none" fill="none" x="6160" y="9733" width="2466" height="2055"/>
          <path fill="rgb(0,0,0)" stroke="none" d="M 7392,11746 L 8584,9774 6201,9774 7392,11746 Z"/>
          <path fill="none" stroke="rgb(255,255,255)" stroke-width="81" stroke-linejoin="round" d="M 7392,11746 L 8584,9774 6201,9774 7392,11746 Z"/>
         </g>
        </g>
       </g>
       <g class="Group">
        <g class="com.sun.star.drawing.CustomShape">
         <g id="id5">
          <rect class="BoundingBox" stroke="none" fill="none" x="9769" y="5142" width="1386" height="4252"/>
          <path fill="rgb(0,0,0)" stroke="none" d="M 10462,9352 L 9810,9352 9810,5183 11113,5183 11113,9352 10462,9352 Z"/>
          <path fill="none" stroke="rgb(255,255,255)" stroke-width="81" stroke-linejoin="round" d="M 10462,9352 L 9810,9352 9810,5183 11113,5183 11113,9352 10462,9352 Z"/>
         </g>
        </g>
        <g class="com.sun.star.drawing.CustomShape">
         <g id="id6">
          <rect class="BoundingBox" stroke="none" fill="none" x="9441" y="9690" width="2041" height="1410"/>
          <path fill="rgb(0,0,0)" stroke="none" d="M 10461,11058 L 11440,9731 9482,9731 10461,11058 Z"/>
          <path fill="none" stroke="rgb(255,255,255)" stroke-width="81" stroke-linejoin="round" d="M 10461,11058 L 11440,9731 9482,9731 10461,11058 Z"/>
         </g>
        </g>
       </g>
       <g class="Group">
        <g class="com.sun.star.drawing.CustomShape">
         <g id="id7">
          <rect class="BoundingBox" stroke="none" fill="none" x="3735" y="4896" width="1388" height="4465"/>
          <path fill="rgb(0,0,0)" stroke="none" d="M 4429,9319 L 3776,9319 3776,4937 5081,4937 5081,9319 4429,9319 Z"/>
          <path fill="none" stroke="rgb(255,255,255)" stroke-width="81" stroke-linejoin="round" d="M 4429,9319 L 3776,9319 3776,4937 5081,4937 5081,9319 4429,9319 Z"/>
         </g>
        </g>
        <g class="com.sun.star.drawing.CustomShape">
         <g id="id8">
          <rect class="BoundingBox" stroke="none" fill="none" x="3409" y="9675" width="2041" height="1478"/>
          <path fill="rgb(0,0,0)" stroke="none" d="M 4429,11111 L 5408,9716 3450,9716 4429,11111 Z"/>
          <path fill="none" stroke="rgb(255,255,255)" stroke-width="81" stroke-linejoin="round" d="M 4429,11111 L 5408,9716 3450,9716 4429,11111 Z"/>
         </g>
        </g>
       </g>
       <g class="com.sun.star.drawing.ClosedBezierShape">
        <g id="id9">
         <rect class="BoundingBox" stroke="none" fill="none" x="9032" y="4592" width="2808" height="1314"/>
         <path fill="rgb(0,0,0)" stroke="none" d="M 11238,5320 C 11319,5272 11362,5217 11362,5161 11362,5106 11319,5051 11238,5003 11157,4955 11040,4914 10899,4887 10758,4859 10598,4844 10435,4844 10273,4844 10113,4859 9972,4887 9831,4914 9714,4955 9633,5003 9552,5051 9509,5106 9509,5161 9509,5217 9552,5272 9633,5320 9714,5368 9831,5408 9972,5436 10113,5464 10273,5478 10435,5478 10598,5478 10758,5464 10899,5436 11040,5408 11157,5368 11238,5320 Z M 11582,5536 C 11466,5624 11298,5697 11097,5747 10896,5798 10668,5825 10435,5825 10203,5825 9975,5798 9774,5747 9573,5697 9405,5624 9289,5536 9173,5449 9112,5349 9112,5248 9112,5147 9173,5048 9289,4960 9405,4872 9573,4800 9774,4749 9975,4698 10203,4672 10435,4672 10668,4672 10896,4698 11097,4749 11298,4800 11466,4872 11582,4960 11698,5048 11759,5147 11759,5248 11759,5349 11698,5449 11582,5536 Z"/>
         <path fill="none" stroke="rgb(255,255,255)" stroke-width="159" stroke-linejoin="round" d="M 11238,5320 C 11319,5272 11362,5217 11362,5161 11362,5106 11319,5051 11238,5003 11157,4955 11040,4914 10899,4887 10758,4859 10598,4844 10435,4844 10273,4844 10113,4859 9972,4887 9831,4914 9714,4955 9633,5003 9552,5051 9509,5106 9509,5161 9509,5217 9552,5272 9633,5320 9714,5368 9831,5408 9972,5436 10113,5464 10273,5478 10435,5478 10598,5478 10758,5464 10899,5436 11040,5408 11157,5368 11238,5320 Z"/>
         <path fill="none" stroke="rgb(255,255,255)" stroke-width="159" stroke-linejoin="round" d="M 11582,5536 C 11466,5624 11298,5697 11097,5747 10896,5798 10668,5825 10435,5825 10203,5825 9975,5798 9774,5747 9573,5697 9405,5624 9289,5536 9173,5449 9112,5349 9112,5248 9112,5147 9173,5048 9289,4960 9405,4872 9573,4800 9774,4749 9975,4698 10203,4672 10435,4672 10668,4672 10896,4698 11097,4749 11298,4800 11466,4872 11582,4960 11698,5048 11759,5147 11759,5248 11759,5349 11698,5449 11582,5536 Z"/>
        </g>
       </g>
       <g class="com.sun.star.drawing.ClosedBezierShape">
        <g id="id10">
         <rect class="BoundingBox" stroke="none" fill="none" x="2961" y="4561" width="3081" height="1102"/>
         <path fill="rgb(0,0,0)" stroke="none" d="M 3947,5068 C 3991,5170 4035,5277 4018,5383 4006,5456 4019,5530 4009,5603 3923,5586 3839,5565 3759,5539 3645,5502 3541,5458 3449,5406 3356,5354 3276,5296 3209,5232 3142,5166 3090,5096 3056,5024 3020,4951 3002,4875 3002,4798 3002,4744 3012,4690 3029,4637 3030,4634 3032,4631 3033,4629 3037,4623 3042,4618 3049,4614 3055,4611 3063,4609 3070,4609 3078,4609 3085,4611 3092,4614 3095,4616 3098,4618 3101,4621 3171,4686 3256,4746 3352,4799 3450,4853 3560,4899 3679,4938 3753,4962 3830,4982 3910,4999 3924,5022 3936,5045 3947,5068 Z M 4877,5532 C 4860,5443 4834,5355 4836,5267 4837,5180 4890,5094 4973,5020 5091,5000 5206,4973 5314,4938 5435,4899 5546,4851 5645,4796 5743,4742 5828,4681 5899,4614 5902,4612 5905,4609 5908,4608 5915,4604 5922,4602 5930,4602 5937,4602 5945,4604 5951,4608 5958,4611 5963,4616 5967,4622 5968,4624 5970,4627 5970,4629 5990,4685 6000,4741 6000,4798 6000,4875 5982,4951 5947,5024 5912,5096 5861,5166 5793,5232 5727,5296 5646,5354 5553,5406 5461,5458 5357,5502 5243,5539 5132,5575 5014,5602 4892,5621 4887,5591 4883,5561 4877,5532 Z"/>
         <path fill="none" stroke="rgb(255,255,255)" stroke-width="81" stroke-linejoin="round" d="M 3947,5068 C 3991,5170 4035,5277 4018,5383 4006,5456 4019,5530 4009,5603 3923,5586 3839,5565 3759,5539 3645,5502 3541,5458 3449,5406 3356,5354 3276,5296 3209,5232 3142,5166 3090,5096 3056,5024 3020,4951 3002,4875 3002,4798 3002,4744 3012,4690 3029,4637 3030,4634 3032,4631 3033,4629 3037,4623 3042,4618 3049,4614 3055,4611 3063,4609 3070,4609 3078,4609 3085,4611 3092,4614 3095,4616 3098,4618 3101,4621 3171,4686 3256,4746 3352,4799 3450,4853 3560,4899 3679,4938 3753,4962 3830,4982 3910,4999 3924,5022 3936,5045 3947,5068 Z"/>
         <path fill="none" stroke="rgb(255,255,255)" stroke-width="81" stroke-linejoin="round" d="M 4877,5532 C 4860,5443 4834,5355 4836,5267 4837,5180 4890,5094 4973,5020 5091,5000 5206,4973 5314,4938 5435,4899 5546,4851 5645,4796 5743,4742 5828,4681 5899,4614 5902,4612 5905,4609 5908,4608 5915,4604 5922,4602 5930,4602 5937,4602 5945,4604 5951,4608 5958,4611 5963,4616 5967,4622 5968,4624 5970,4627 5970,4629 5990,4685 6000,4741 6000,4798 6000,4875 5982,4951 5947,5024 5912,5096 5861,5166 5793,5232 5727,5296 5646,5354 5553,5406 5461,5458 5357,5502 5243,5539 5132,5575 5014,5602 4892,5621 4887,5591 4883,5561 4877,5532 Z"/>
        </g>
       </g>
      </g>
     </g>
    </g>
   </g>
  </g>
 </g>
</svg>